<mxfile host="app.diagrams.net" modified="2023-10-03T17:15:20.151Z" agent="Mozilla/5.0 (Windows NT 10.0; Win64; x64) AppleWebKit/537.36 (KHTML, like Gecko) Chrome/117.0.0.0 Safari/537.36" etag="Lbhrp1Lby0HCMGJ_-BUF" version="21.8.2" type="device">
  <diagram name="Страница — 1" id="AdFOdjGgJhjQYb_QFiZa">
    <mxGraphModel dx="1195" dy="658" grid="1" gridSize="10" guides="1" tooltips="1" connect="1" arrows="1" fold="1" page="1" pageScale="1" pageWidth="827" pageHeight="1169" math="0" shadow="0">
      <root>
        <mxCell id="0" />
        <mxCell id="1" parent="0" />
        <mxCell id="b16pgbRVrTGLanBJNTW7-1" value="&quot;Настільний комп&#39;ютер&quot;" style="verticalAlign=top;align=center;shape=cube;size=10;direction=south;fontStyle=0;html=1;boundedLbl=1;spacingLeft=5;whiteSpace=wrap;" vertex="1" parent="1">
          <mxGeometry x="200" y="220" width="250" height="270" as="geometry" />
        </mxCell>
        <mxCell id="b16pgbRVrTGLanBJNTW7-2" value="&quot;OS Windows&quot;" style="verticalAlign=top;align=center;shape=cube;size=10;direction=south;html=1;boundedLbl=1;spacingLeft=5;whiteSpace=wrap;" vertex="1" parent="b16pgbRVrTGLanBJNTW7-1">
          <mxGeometry width="200" height="190" relative="1" as="geometry">
            <mxPoint x="20" y="50" as="offset" />
          </mxGeometry>
        </mxCell>
        <mxCell id="b16pgbRVrTGLanBJNTW7-3" value="&quot;Веб навігатор&quot;" style="verticalAlign=top;align=center;shape=cube;size=10;direction=south;html=1;boundedLbl=1;spacingLeft=5;whiteSpace=wrap;" vertex="1" parent="b16pgbRVrTGLanBJNTW7-1">
          <mxGeometry width="150" height="120" relative="1" as="geometry">
            <mxPoint x="40" y="90" as="offset" />
          </mxGeometry>
        </mxCell>
        <mxCell id="b16pgbRVrTGLanBJNTW7-4" value="* .js&lt;br&gt;(React)" style="rounded=0;whiteSpace=wrap;html=1;" vertex="1" parent="b16pgbRVrTGLanBJNTW7-1">
          <mxGeometry x="70" y="130" width="90" height="60" as="geometry" />
        </mxCell>
        <mxCell id="b16pgbRVrTGLanBJNTW7-5" value="" style="rounded=0;whiteSpace=wrap;html=1;" vertex="1" parent="b16pgbRVrTGLanBJNTW7-1">
          <mxGeometry x="55" y="140" width="20" height="10" as="geometry" />
        </mxCell>
        <mxCell id="b16pgbRVrTGLanBJNTW7-6" value="" style="rounded=0;whiteSpace=wrap;html=1;" vertex="1" parent="b16pgbRVrTGLanBJNTW7-1">
          <mxGeometry x="55" y="160" width="20" height="10" as="geometry" />
        </mxCell>
        <mxCell id="b16pgbRVrTGLanBJNTW7-7" value="&quot;Сервер 1&quot;" style="verticalAlign=top;align=center;shape=cube;size=10;direction=south;fontStyle=0;html=1;boundedLbl=1;spacingLeft=5;whiteSpace=wrap;" vertex="1" parent="1">
          <mxGeometry x="490" y="220" width="250" height="270" as="geometry" />
        </mxCell>
        <mxCell id="b16pgbRVrTGLanBJNTW7-8" value="&quot;OS Windows&quot;" style="verticalAlign=top;align=center;shape=cube;size=10;direction=south;html=1;boundedLbl=1;spacingLeft=5;whiteSpace=wrap;" vertex="1" parent="b16pgbRVrTGLanBJNTW7-7">
          <mxGeometry width="200" height="190" relative="1" as="geometry">
            <mxPoint x="20" y="50" as="offset" />
          </mxGeometry>
        </mxCell>
        <mxCell id="b16pgbRVrTGLanBJNTW7-9" value="&quot;Node.js&quot;" style="verticalAlign=top;align=center;shape=cube;size=10;direction=south;html=1;boundedLbl=1;spacingLeft=5;whiteSpace=wrap;" vertex="1" parent="b16pgbRVrTGLanBJNTW7-7">
          <mxGeometry width="150" height="120" relative="1" as="geometry">
            <mxPoint x="40" y="90" as="offset" />
          </mxGeometry>
        </mxCell>
        <mxCell id="b16pgbRVrTGLanBJNTW7-10" value="* .js" style="rounded=0;whiteSpace=wrap;html=1;" vertex="1" parent="b16pgbRVrTGLanBJNTW7-7">
          <mxGeometry x="70" y="130" width="90" height="60" as="geometry" />
        </mxCell>
        <mxCell id="b16pgbRVrTGLanBJNTW7-11" value="" style="rounded=0;whiteSpace=wrap;html=1;" vertex="1" parent="b16pgbRVrTGLanBJNTW7-7">
          <mxGeometry x="55" y="140" width="20" height="10" as="geometry" />
        </mxCell>
        <mxCell id="b16pgbRVrTGLanBJNTW7-12" value="" style="rounded=0;whiteSpace=wrap;html=1;" vertex="1" parent="b16pgbRVrTGLanBJNTW7-7">
          <mxGeometry x="55" y="160" width="20" height="10" as="geometry" />
        </mxCell>
        <mxCell id="b16pgbRVrTGLanBJNTW7-13" value="&quot;Сервер 2&quot;" style="verticalAlign=top;align=center;shape=cube;size=10;direction=south;fontStyle=0;html=1;boundedLbl=1;spacingLeft=5;whiteSpace=wrap;" vertex="1" parent="1">
          <mxGeometry x="780" y="220" width="250" height="270" as="geometry" />
        </mxCell>
        <mxCell id="b16pgbRVrTGLanBJNTW7-14" value="&quot;OS Linux&quot;" style="verticalAlign=top;align=center;shape=cube;size=10;direction=south;html=1;boundedLbl=1;spacingLeft=5;whiteSpace=wrap;" vertex="1" parent="b16pgbRVrTGLanBJNTW7-13">
          <mxGeometry width="200" height="190" relative="1" as="geometry">
            <mxPoint x="20" y="50" as="offset" />
          </mxGeometry>
        </mxCell>
        <mxCell id="b16pgbRVrTGLanBJNTW7-15" value="&lt;font style=&quot;font-size: 12px;&quot;&gt;&quot;Database Server Postgree&quot;&lt;/font&gt;" style="verticalAlign=top;align=center;shape=cube;size=10;direction=south;html=1;boundedLbl=1;spacingLeft=5;whiteSpace=wrap;" vertex="1" parent="b16pgbRVrTGLanBJNTW7-13">
          <mxGeometry width="150" height="120" relative="1" as="geometry">
            <mxPoint x="40" y="90" as="offset" />
          </mxGeometry>
        </mxCell>
        <mxCell id="b16pgbRVrTGLanBJNTW7-16" value="Relational DataBase" style="rounded=0;whiteSpace=wrap;html=1;" vertex="1" parent="b16pgbRVrTGLanBJNTW7-13">
          <mxGeometry x="70" y="135" width="90" height="60" as="geometry" />
        </mxCell>
        <mxCell id="b16pgbRVrTGLanBJNTW7-17" value="" style="rounded=0;whiteSpace=wrap;html=1;" vertex="1" parent="b16pgbRVrTGLanBJNTW7-13">
          <mxGeometry x="55" y="140" width="20" height="10" as="geometry" />
        </mxCell>
        <mxCell id="b16pgbRVrTGLanBJNTW7-18" value="" style="rounded=0;whiteSpace=wrap;html=1;" vertex="1" parent="b16pgbRVrTGLanBJNTW7-13">
          <mxGeometry x="55" y="160" width="20" height="10" as="geometry" />
        </mxCell>
        <mxCell id="b16pgbRVrTGLanBJNTW7-19" value="" style="endArrow=none;dashed=1;html=1;dashPattern=1 3;strokeWidth=2;rounded=0;" edge="1" parent="1">
          <mxGeometry width="50" height="50" relative="1" as="geometry">
            <mxPoint x="470" y="515" as="sourcePoint" />
            <mxPoint x="470" y="195" as="targetPoint" />
          </mxGeometry>
        </mxCell>
        <mxCell id="b16pgbRVrTGLanBJNTW7-20" value="" style="endArrow=none;dashed=1;html=1;dashPattern=1 3;strokeWidth=2;rounded=0;" edge="1" parent="1">
          <mxGeometry width="50" height="50" relative="1" as="geometry">
            <mxPoint x="760" y="515" as="sourcePoint" />
            <mxPoint x="760" y="195" as="targetPoint" />
          </mxGeometry>
        </mxCell>
        <mxCell id="b16pgbRVrTGLanBJNTW7-21" value="" style="endArrow=none;html=1;rounded=0;" edge="1" parent="1">
          <mxGeometry width="50" height="50" relative="1" as="geometry">
            <mxPoint x="450" y="360" as="sourcePoint" />
            <mxPoint x="490" y="360" as="targetPoint" />
          </mxGeometry>
        </mxCell>
        <mxCell id="b16pgbRVrTGLanBJNTW7-22" value="" style="endArrow=none;html=1;rounded=0;" edge="1" parent="1">
          <mxGeometry width="50" height="50" relative="1" as="geometry">
            <mxPoint x="740" y="360" as="sourcePoint" />
            <mxPoint x="780" y="360" as="targetPoint" />
          </mxGeometry>
        </mxCell>
        <mxCell id="b16pgbRVrTGLanBJNTW7-25" value="" style="group" vertex="1" connectable="0" parent="1">
          <mxGeometry x="250" y="490" width="45" height="80" as="geometry" />
        </mxCell>
        <mxCell id="b16pgbRVrTGLanBJNTW7-23" value="" style="ellipse;whiteSpace=wrap;html=1;aspect=fixed;" vertex="1" parent="b16pgbRVrTGLanBJNTW7-25">
          <mxGeometry y="35" width="45" height="45" as="geometry" />
        </mxCell>
        <mxCell id="b16pgbRVrTGLanBJNTW7-24" value="" style="endArrow=none;html=1;rounded=0;" edge="1" parent="b16pgbRVrTGLanBJNTW7-25">
          <mxGeometry width="50" height="50" relative="1" as="geometry">
            <mxPoint x="22.079999999999984" y="35" as="sourcePoint" />
            <mxPoint x="22" as="targetPoint" />
          </mxGeometry>
        </mxCell>
        <mxCell id="b16pgbRVrTGLanBJNTW7-26" value="" style="group" vertex="1" connectable="0" parent="1">
          <mxGeometry x="340" y="490" width="45" height="80" as="geometry" />
        </mxCell>
        <mxCell id="b16pgbRVrTGLanBJNTW7-27" value="" style="ellipse;whiteSpace=wrap;html=1;aspect=fixed;" vertex="1" parent="b16pgbRVrTGLanBJNTW7-26">
          <mxGeometry y="35" width="45" height="45" as="geometry" />
        </mxCell>
        <mxCell id="b16pgbRVrTGLanBJNTW7-28" value="" style="endArrow=none;html=1;rounded=0;" edge="1" parent="b16pgbRVrTGLanBJNTW7-26">
          <mxGeometry width="50" height="50" relative="1" as="geometry">
            <mxPoint x="22.079999999999984" y="35" as="sourcePoint" />
            <mxPoint x="22" as="targetPoint" />
          </mxGeometry>
        </mxCell>
        <mxCell id="b16pgbRVrTGLanBJNTW7-29" value="Клавіатура" style="text;html=1;align=center;verticalAlign=middle;resizable=0;points=[];autosize=1;strokeColor=none;fillColor=none;" vertex="1" parent="1">
          <mxGeometry x="230" y="578" width="80" height="30" as="geometry" />
        </mxCell>
        <mxCell id="b16pgbRVrTGLanBJNTW7-30" value="Маніпулятор&lt;br&gt;&quot;миша&quot;" style="text;html=1;align=center;verticalAlign=middle;resizable=0;points=[];autosize=1;strokeColor=none;fillColor=none;" vertex="1" parent="1">
          <mxGeometry x="317.5" y="573" width="90" height="40" as="geometry" />
        </mxCell>
      </root>
    </mxGraphModel>
  </diagram>
</mxfile>
